<?xml version="1.0" encoding="UTF-8" standalone="no"?>
<svg
   xmlns:dc="http://purl.org/dc/elements/1.1/"
   xmlns:cc="http://creativecommons.org/ns#"
   xmlns:rdf="http://www.w3.org/1999/02/22-rdf-syntax-ns#"
   xmlns:svg="http://www.w3.org/2000/svg"
   xmlns="http://www.w3.org/2000/svg"
   viewBox="0 0 587.50665 171.50667"
   height="171.50667"
   width="587.50665"
   xml:space="preserve"
   id="svg2"
   version="1.1"><metadata
     id="metadata8"><rdf:RDF><cc:Work
         rdf:about=""><dc:format>image/svg+xml</dc:format><dc:type
           rdf:resource="http://purl.org/dc/dcmitype/StillImage" /></cc:Work></rdf:RDF></metadata><defs
     id="defs6" /><g
     transform="matrix(1.3333333,0,0,-1.3333333,0,171.50667)"
     id="g10"><g
       transform="scale(0.1)"
       id="g12"><path
         id="path14"
         style="fill:#b2c1e7;fill-opacity:1;fill-rule:nonzero;stroke:none"
         d="M 2257.46,50.7188 2515.51,1000 H 2200.47 L 2106.04,633.137 H 1855.9 L 1952.5,1000 H 1638.68 L 1379.4,50.7188 h 315.05 l 105.5,419.9262 h 250.13 L 1946.27,50.7188 h 311.19 v 0" /><path
         id="path16"
         style="fill:#1966b7;fill-opacity:1;fill-rule:nonzero;stroke:none"
         d="M 218.984,1001.4 0,50.1289 H 306.094 L 339.07,271.301 463.965,370.012 574.551,50.1289 H 880.652 L 678.145,558.73 921.863,800.402 V 49.8398 L 1182.07,50.3086 1947.32,1286.33 H 1769.54 L 1219.72,405.684 1220.74,1000 H 935.508 L 406.484,550.488 525.098,1001.23 218.984,1001.4 v 0" /><path
         id="path18"
         style="fill:#231f20;fill-opacity:1;fill-rule:nonzero;stroke:none"
         d="m 2764.27,552.094 -26.4,84.746 -38.32,-34.887 -13.11,-50.047 -26.27,-0.066 45.12,172.144 26.27,0.071 -22.69,-86.563 93.47,86.731 32.11,0.078 -73.87,-67.602 34.58,-104.539 -30.89,-0.066" /><path
         id="path20"
         style="fill:#231f20;fill-opacity:1;fill-rule:nonzero;stroke:none"
         d="m 2897.64,606.523 -28.95,-0.066 c -14.59,-0.027 -23.85,-6.57 -26.76,-17.695 -2.91,-11.121 2.48,-17.395 18.05,-17.364 9.49,0.032 16.74,0.774 24.95,7.071 4.6,3.64 7.82,9.441 10.11,18.144 z m -13.71,-54.16 2.91,11.125 c -11.35,-8.965 -20.8,-12.617 -36.14,-12.656 -15.32,-0.027 -24.59,3.574 -30.15,11.055 -4.61,6.511 -5.55,15.937 -2.83,26.328 5.39,20.555 23.61,35.344 51.83,35.398 l 32.58,0.078 2.28,8.711 c 4.07,15.469 -1.75,22.942 -20.97,22.903 -13.62,-0.039 -21.02,-3.196 -30.1,-11.914 l -12.3,15.183 c 15.22,13.586 28.45,17.715 48.88,17.766 33.81,0.078 47.09,-14.141 39.81,-41.953 l -21.49,-81.961 -24.31,-0.063" /><path
         id="path22"
         style="fill:#231f20;fill-opacity:1;fill-rule:nonzero;stroke:none"
         d="m 2986.17,551.152 c -20.18,-0.047 -36.33,3.313 -47.18,17.539 l 20.54,16.243 c 7.33,-10.137 20,-12.762 32.15,-12.735 15.08,0.039 28.4,5.379 31.45,16.992 2.14,8.223 -1.08,13.528 -12.74,14.461 l -19.26,1.645 c -22.59,1.875 -33.26,12.242 -27.61,33.766 6.27,23.925 30.5,37.519 56.28,37.578 18.48,0.05 33.29,-3.778 42.11,-13.668 l -19.68,-15.754 c -6.08,6.511 -16.39,8.894 -28.07,8.867 -14.82,-0.027 -24.08,-6.57 -26.49,-15.754 -1.91,-7.254 0.53,-12.812 13.35,-13.992 l 19.01,-1.641 c 22.6,-1.886 33.37,-12.722 27.67,-34.48 -6.72,-25.637 -32.09,-38.996 -61.53,-39.067" /><path
         id="path24"
         style="fill:#231f20;fill-opacity:1;fill-rule:nonzero;stroke:none"
         d="m 3106.32,551.438 c -20.19,-0.047 -36.33,3.308 -47.18,17.539 l 20.55,16.242 c 7.3,-10.141 19.98,-12.766 32.15,-12.739 15.07,0.04 28.39,5.383 31.43,16.997 2.16,8.218 -1.08,13.523 -12.74,14.461 l -19.26,1.64 c -22.6,1.875 -33.24,12.246 -27.6,33.77 6.27,23.925 30.49,37.519 56.27,37.578 18.5,0.051 33.28,-3.781 42.11,-13.672 l -19.69,-15.75 c -6.07,6.512 -16.38,8.894 -28.04,8.863 -14.85,-0.027 -24.11,-6.57 -26.51,-15.75 -1.89,-7.258 0.53,-12.812 13.36,-13.996 l 19.01,-1.641 c 22.6,-1.882 33.36,-12.722 27.66,-34.48 -6.72,-25.637 -32.09,-38.992 -61.52,-39.062" /><path
         id="path26"
         style="fill:#231f20;fill-opacity:1;fill-rule:nonzero;stroke:none"
         d="m 3281.78,641.262 c -1.49,9.179 -8.6,15.437 -20.28,15.41 -11.68,-0.031 -22.31,-6.328 -28.61,-15.527 -3.9,-5.567 -5.33,-9.192 -7.54,-16.692 l 55.45,0.141 c 1.72,7.5 1.94,11.109 0.98,16.668 z m -60.94,-33.977 c -5.51,-21.031 2.21,-34.297 22.38,-34.246 13.87,0.027 22.18,3.906 33.23,12.637 l 11.93,-14.719 c -15.94,-12.598 -29.57,-19.156 -51.22,-19.207 -30.89,-0.078 -51.2,16.063 -38.98,62.734 10.39,39.649 37.09,62.664 68.71,62.743 33.09,0.082 45.96,-24.051 36.84,-58.868 l -2.85,-10.879 -80.04,-0.195" /><path
         id="path28"
         style="fill:#231f20;fill-opacity:1;fill-rule:nonzero;stroke:none"
         d="m 3394.89,553.574 19.58,74.707 c 5.01,19.106 -3.77,27.297 -17.63,27.27 -13.87,-0.031 -27.76,-8.52 -32.7,-27.387 l -19.59,-74.707 -24.81,-0.059 32.14,122.579 24.31,0.058 -3.22,-12.32 c 10.92,9.195 24.04,13.824 36.44,13.855 12.64,0.032 22.03,-4.054 27.48,-11.054 7.09,-9.161 6.96,-20.762 3.34,-34.551 l -20.52,-78.328 -24.82,-0.063" /><path
         id="path30"
         style="fill:#231f20;fill-opacity:1;fill-rule:nonzero;stroke:none"
         d="m 3554.28,699.895 6.83,26.113 22.39,0.058 -6.85,-26.113 z m -52.54,-0.129 6.83,26.117 22.39,0.055 -6.84,-26.114 z m 36.48,-91.727 -28.94,-0.066 c -14.59,-0.032 -23.85,-6.575 -26.76,-17.7 -2.91,-11.121 2.48,-17.402 18.05,-17.363 9.49,0.031 16.73,0.774 24.95,7.07 4.6,3.645 7.82,9.446 10.11,18.149 z m -13.71,-54.16 2.91,11.125 c -11.35,-8.969 -20.8,-12.617 -36.13,-12.656 -15.32,-0.032 -24.59,3.574 -30.16,11.05 -4.61,6.516 -5.54,15.942 -2.82,26.329 5.38,20.558 23.6,35.332 51.83,35.402 l 32.57,0.078 2.29,8.711 c 4.06,15.469 -1.76,22.937 -20.98,22.898 -13.61,-0.039 -21.01,-3.191 -30.09,-11.914 l -12.31,15.188 c 15.23,13.586 28.46,17.715 48.89,17.762 33.81,0.082 47.09,-14.137 39.8,-41.954 l -21.48,-81.96 -24.32,-0.059" /><path
         id="path32"
         style="fill:#231f20;fill-opacity:1;fill-rule:nonzero;stroke:none"
         d="m 3679.45,648 c -4.14,5.547 -7.81,8.191 -16.32,8.176 -13.38,-0.031 -27.36,-10.703 -31.79,-27.617 l -19.52,-74.477 -24.82,-0.059 32.14,122.579 24.32,0.058 -3.48,-13.301 c 8.6,8.735 22.83,14.805 36.7,14.836 11.91,0.032 20.09,-3.093 26.39,-11.543 L 3679.45,648" /><path
         id="path34"
         style="fill:#231f20;fill-opacity:1;fill-rule:nonzero;stroke:none"
         d="m 3684.78,554.262 5.12,19.59 82.52,81.128 -57.87,-0.132 5.76,22 88.54,0.207 -5.14,-19.582 -83.01,-81.145 61.78,0.149 -5.76,-22 -91.94,-0.215" /><path
         id="path36"
         style="fill:#231f20;fill-opacity:1;fill-rule:nonzero;stroke:none"
         d="m 3845.05,554.641 c -23.11,-0.059 -29.5,16.367 -24.87,34.023 l 17.67,67.441 -14.1,-0.039 4.95,18.868 14.1,0.039 9.76,37.226 24.82,0.047 -9.76,-37.226 23.84,0.058 -4.96,-18.863 -23.82,-0.063 -17.37,-66.226 c -2.34,-8.949 0.63,-14.25 9.87,-14.231 l 10.23,0.02 -5.52,-21.043 -14.84,-0.031" /><path
         id="path38"
         style="fill:#231f20;fill-opacity:1;fill-rule:nonzero;stroke:none"
         d="m 3924.82,554.824 c -23.59,-0.058 -29.68,15.649 -24.94,33.774 l 36.25,138.297 24.81,0.058 -35.86,-136.844 c -2.48,-9.425 -0.33,-14.25 9.63,-14.226 l 10.95,0.027 -5.51,-21.047 -15.33,-0.039" /><path
         id="path40"
         style="fill:#231f20;fill-opacity:1;fill-rule:nonzero;stroke:none"
         d="m 4005.37,701.684 6.84,26.113 26.27,0.055 -6.84,-26.114 z m -37.75,-146.758 32.13,122.578 24.82,0.055 -32.14,-122.579 -24.81,-0.054" /><path
         id="path42"
         style="fill:#231f20;fill-opacity:1;fill-rule:nonzero;stroke:none"
         d="m 4080.34,553.742 c -27.73,-0.066 -50.54,16.797 -38.48,62.735 12.03,45.937 43.65,62.683 71.38,62.753 17.01,0.04 27.66,-4.765 36.12,-17.082 l -21.33,-16.472 c -5.57,8.437 -10.84,11.57 -20.57,11.551 -9.49,-0.028 -18.53,-3.914 -25.72,-10.938 -7.11,-6.773 -11.35,-15.484 -15.08,-29.754 -3.75,-14.269 -4.14,-23.203 -0.57,-29.961 3.52,-7.004 10.53,-10.859 20.02,-10.832 9.73,0.024 16.63,3.176 26.64,11.66 l 12.78,-16.16 c -14.92,-12.344 -28.17,-17.461 -45.19,-17.5" /><path
         id="path44"
         style="fill:#231f20;fill-opacity:1;fill-rule:nonzero;stroke:none"
         d="m 4224.94,555.527 19.71,75.2 c 4.88,18.613 -3.91,26.812 -17.77,26.777 -13.87,-0.031 -27.27,-8.52 -32.09,-26.899 l -19.71,-75.195 -24.82,-0.058 45.13,172.152 24.81,0.055 -16.22,-61.895 c 10.92,9.199 23.31,13.828 35.47,13.859 27.48,0.071 37.99,-18.281 31.02,-44.875 l -20.72,-79.058 -24.81,-0.063" /><path
         id="path46"
         style="fill:#231f20;fill-opacity:1;fill-rule:nonzero;stroke:none"
         d="m 4381.52,643.859 c -1.46,9.18 -8.59,15.442 -20.25,15.411 -11.68,-0.032 -22.32,-6.329 -28.63,-15.528 -3.89,-5.578 -5.34,-9.187 -7.54,-16.687 l 55.47,0.133 c 1.72,7.5 1.93,11.105 0.95,16.671 z m -60.91,-33.972 c -5.51,-21.035 2.18,-34.297 22.38,-34.25 13.87,0.027 22.17,3.906 33.2,12.636 l 11.95,-14.714 c -15.93,-12.602 -29.57,-19.164 -51.23,-19.211 -30.87,-0.078 -51.21,16.062 -38.96,62.734 10.39,39.648 37.09,62.664 68.71,62.742 33.07,0.078 45.96,-24.058 36.82,-58.867 l -2.85,-10.879 -80.02,-0.191" /><path
         id="path48"
         style="fill:#231f20;fill-opacity:1;fill-rule:nonzero;stroke:none"
         d="m 2650.19,300.48 -20.43,-0.046 -11.79,172 27.23,0.07 7.07,-125.156 72.71,125.34 27.73,0.07 -102.52,-172.278" /><path
         id="path50"
         style="fill:#231f20;fill-opacity:1;fill-rule:nonzero;stroke:none"
         d="m 2812.36,388.801 c -1.47,9.187 -8.59,15.449 -20.25,15.429 -11.68,-0.031 -22.32,-6.339 -28.63,-15.539 -3.89,-5.574 -5.34,-9.187 -7.54,-16.687 l 55.47,0.129 c 1.72,7.5 1.93,11.109 0.95,16.668 z m -60.91,-33.965 c -5.52,-21.035 2.18,-34.297 22.38,-34.258 13.87,0.039 22.17,3.926 33.2,12.656 l 11.95,-14.718 c -15.94,-12.618 -29.58,-19.161 -51.23,-19.215 -30.88,-0.071 -51.21,16.07 -38.96,62.73 10.39,39.653 37.09,62.668 68.71,62.746 33.07,0.078 45.96,-24.062 36.82,-58.867 l -2.86,-10.89 -80.01,-0.184" /><path
         id="path52"
         style="fill:#231f20;fill-opacity:1;fill-rule:nonzero;stroke:none"
         d="m 2942.78,394.914 c -4.13,5.547 -7.82,8.203 -16.33,8.184 -13.36,-0.032 -27.35,-10.711 -31.78,-27.625 l -19.52,-74.465 -24.82,-0.059 32.13,122.578 24.34,0.059 -3.5,-13.301 c 8.61,8.723 22.85,14.793 36.7,14.824 11.93,0.032 20.1,-3.093 26.39,-11.535 l -23.61,-18.66" /><path
         id="path54"
         style="fill:#231f20;fill-opacity:1;fill-rule:nonzero;stroke:none"
         d="m 3043.16,389.348 c -1.47,9.179 -8.59,15.449 -20.25,15.418 -11.68,-0.02 -22.32,-6.336 -28.63,-15.536 -3.89,-5.566 -5.33,-9.179 -7.54,-16.679 l 55.47,0.129 c 1.72,7.5 1.93,11.109 0.95,16.668 z m -60.91,-33.965 c -5.52,-21.035 2.18,-34.309 22.38,-34.258 13.87,0.039 22.17,3.914 33.2,12.645 l 11.96,-14.715 c -15.95,-12.61 -29.58,-19.16 -51.24,-19.207 -30.88,-0.071 -51.21,16.074 -38.96,62.73 10.39,39.649 37.09,62.668 68.71,62.735 33.07,0.078 45.96,-24.051 36.82,-58.856 l -2.85,-10.891 -80.02,-0.183" /><path
         id="path56"
         style="fill:#231f20;fill-opacity:1;fill-rule:nonzero;stroke:none"
         d="m 3118.89,448.242 6.83,26.125 26.27,0.059 -6.83,-26.121 z m -37.76,-146.746 32.13,122.578 24.83,0.059 -32.14,-122.578 -24.82,-0.059" /><path
         id="path58"
         style="fill:#231f20;fill-opacity:1;fill-rule:nonzero;stroke:none"
         d="m 3220.74,301.828 19.59,74.695 c 5,19.106 -3.79,27.305 -17.65,27.278 -13.87,-0.039 -27.76,-8.528 -32.7,-27.395 l -19.58,-74.695 -24.81,-0.059 32.12,122.578 24.34,0.047 -3.24,-12.332 c 10.92,9.207 24.04,13.828 36.44,13.86 12.66,0.027 22.04,-4.043 27.5,-11.047 7.07,-9.16 6.96,-20.762 3.34,-34.539 l -20.53,-78.332 -24.82,-0.059" /><path
         id="path60"
         style="fill:#231f20;fill-opacity:1;fill-rule:nonzero;stroke:none"
         d="m 3321.7,448.723 6.85,26.125 26.27,0.054 -6.85,-26.121 z m -37.74,-146.746 32.13,122.578 24.81,0.054 -32.13,-122.578 -24.81,-0.054" /><path
         id="path62"
         style="fill:#231f20;fill-opacity:1;fill-rule:nonzero;stroke:none"
         d="m 3419.41,404.262 c -22.36,-0.051 -30.29,-19.16 -35.37,-38.508 -5.06,-19.336 -7.15,-38.43 15.23,-38.379 22.38,0.059 30.07,19.16 35.12,38.496 5.08,19.348 7.41,38.445 -14.98,38.391 z m -43.02,-153.051 c -18.73,-0.051 -29.51,4.269 -39.3,16.098 l 19.94,15.75 c 5.88,-7.239 11.74,-10.86 23.9,-10.829 20.92,0.051 32.82,14.825 37.12,31.258 l 4.12,15.723 c -11.8,-10.664 -22.89,-14.063 -35.55,-14.094 -12.4,-0.027 -21.53,4.043 -26.57,10.813 -8.82,11.816 -6.26,28.972 -0.81,49.765 5.45,20.789 11.89,37.957 26.91,49.832 8.6,6.789 20.08,10.688 32.48,10.715 13.13,0.028 22.21,-3.34 28.54,-14.426 l 3.42,13.059 24.08,0.051 -31.94,-121.86 c -7.87,-29.976 -33.51,-51.777 -66.34,-51.855" /><path
         id="path64"
         style="fill:#231f20;fill-opacity:1;fill-rule:nonzero;stroke:none"
         d="m 3556.6,302.617 3.22,12.324 c -10.91,-9.199 -24.03,-13.828 -36.44,-13.855 -12.65,-0.027 -22.03,4.055 -27.48,11.055 -7.08,9.148 -6.95,20.761 -3.34,34.55 l 20.53,78.329 24.8,0.058 -19.58,-74.707 c -5.01,-19.101 3.78,-27.305 17.65,-27.266 13.86,0.032 27.75,8.516 32.7,27.383 l 19.58,74.707 24.81,0.063 -32.13,-122.578 -24.32,-0.063" /><path
         id="path66"
         style="fill:#231f20;fill-opacity:1;fill-rule:nonzero;stroke:none"
         d="m 3695.7,302.949 19.59,74.699 c 5,19.102 -3.79,27.305 -17.65,27.278 -13.87,-0.039 -27.76,-8.535 -32.7,-27.406 l -19.58,-74.696 -24.81,-0.058 32.13,122.578 24.33,0.058 -3.24,-12.336 c 10.92,9.2 24.04,13.829 36.44,13.86 12.66,0.027 22.04,-4.043 27.5,-11.043 7.08,-9.16 6.96,-20.766 3.34,-34.543 l -20.53,-78.328 -24.82,-0.063" /><path
         id="path68"
         style="fill:#231f20;fill-opacity:1;fill-rule:nonzero;stroke:none"
         d="m 3829.94,405.227 c -22.38,-0.047 -30.3,-19.161 -35.37,-38.504 -5.08,-19.336 -7.16,-38.43 15.22,-38.379 22.38,0.054 30.05,19.168 35.13,38.504 5.07,19.343 7.4,38.437 -14.98,38.379 z M 3786.89,252.18 c -18.71,-0.051 -29.49,4.269 -39.27,16.09 l 19.92,15.761 c 5.88,-7.242 11.75,-10.851 23.91,-10.832 20.91,0.051 32.81,14.828 37.12,31.266 l 4.13,15.723 c -11.8,-10.672 -22.91,-14.075 -35.55,-14.102 -12.4,-0.027 -21.54,4.043 -26.58,10.809 -8.81,11.82 -6.25,28.976 -0.8,49.765 5.44,20.793 11.89,37.961 26.91,49.836 8.59,6.785 20.06,10.684 32.46,10.711 13.15,0.031 22.23,-3.34 28.54,-14.422 l 3.43,13.059 24.09,0.054 -31.96,-121.851 c -7.85,-29.988 -33.49,-51.785 -66.35,-51.867" /><path
         id="path70"
         style="fill:#231f20;fill-opacity:1;fill-rule:nonzero;stroke:none"
         d="m 2624.86,49.0703 19.73,75.1997 -70.29,-0.168 -19.73,-75.1918 -26.26,-0.0704 45.13,172.1402 26.27,0.071 -19.28,-73.5 70.29,0.168 19.28,73.492 26.27,0.059 -45.14,-172.1411 -26.27,-0.0586" /><path
         id="path72"
         style="fill:#231f20;fill-opacity:1;fill-rule:nonzero;stroke:none"
         d="m 2773.81,103.539 -28.95,-0.07 c -14.59,-0.028 -23.84,-6.5706 -26.75,-17.6995 -2.91,-11.1211 2.48,-17.3789 18.04,-17.3476 9.49,0.0273 16.74,0.7578 24.94,7.0586 4.61,3.6406 7.84,9.4414 10.12,18.1484 z M 2760.1,49.3906 2763.01,60.5 c -11.35,-8.9609 -20.8,-12.6094 -36.13,-12.6484 -15.34,-0.0313 -24.59,3.5703 -30.16,11.0468 -4.61,6.5235 -5.55,15.9414 -2.83,26.3321 5.39,20.5505 23.61,35.3395 51.83,35.3985 l 32.58,0.07 2.29,8.723 c 4.06,15.457 -1.76,22.937 -20.98,22.898 -13.61,-0.039 -21.02,-3.199 -30.1,-11.922 l -12.3,15.204 c 15.22,13.57 28.45,17.707 48.88,17.757 33.81,0.082 47.09,-14.148 39.81,-41.961 l -21.49,-81.9488 -24.31,-0.0586" /><path
         id="path74"
         style="fill:#231f20;fill-opacity:1;fill-rule:nonzero;stroke:none"
         d="m 2973.14,49.8906 19.58,74.6994 c 5.01,19.101 -3.77,27.308 -17.64,27.281 -13.38,-0.031 -27.76,-8.531 -32.38,-26.18 l -19.91,-75.9097 -24.8,-0.0625 19.58,74.7032 c 5.01,19.098 -3.78,27.297 -17.65,27.269 -13.87,-0.043 -27.75,-8.519 -32.69,-27.39 l -19.59,-74.6994 -24.81,-0.0625 32.13,122.5819 24.34,0.051 -3.25,-12.332 c 10.63,8.961 24.05,13.832 36.45,13.859 15.33,0.039 25.66,-5.969 30.34,-17.801 13.14,12.102 27.06,17.942 43.37,17.981 12.64,0.031 22.75,-4.051 28.2,-11.059 7.08,-9.16 7.7,-20.761 4.09,-34.539 l -20.55,-78.3318 -24.81,-0.0586" /><path
         id="path76"
         style="fill:#231f20;fill-opacity:1;fill-rule:nonzero;stroke:none"
         d="m 3113.71,152.191 c -22.38,-0.05 -30.72,-18.929 -36.42,-40.679 -5.72,-21.762 -7.31,-40.8518 15.05,-40.8128 22.39,0.0625 30.55,19.1719 36.25,40.9298 5.71,21.762 7.48,40.621 -14.88,40.562 z m 12.21,-92.5191 c -8.6,-6.7735 -20.61,-10.9219 -33.03,-10.9531 -13.36,-0.0274 -22.46,3.332 -28.77,14.4414 l -3.44,-13.0586 -24.31,-0.0625 45.11,172.1409 24.83,0.058 -16.23,-61.898 c 11.78,10.672 22.83,13.84 35.96,13.871 12.42,0.027 22.03,-4.051 27.07,-10.82 9.18,-12.289 5.18,-33.082 0.31,-51.7 -4.88,-18.6129 -11.88,-39.6597 -27.5,-52.0191" /><path
         id="path78"
         style="fill:#231f20;fill-opacity:1;fill-rule:nonzero;stroke:none"
         d="m 3245.53,50.5391 3.24,12.3203 c -10.92,-9.1992 -24.04,-13.8203 -36.47,-13.8477 -12.63,-0.0312 -22.01,4.0586 -27.48,11.0391 -7.07,9.168 -6.95,20.7578 -3.34,34.5508 l 20.55,78.3284 24.81,0.058 -19.59,-74.7067 c -5,-19.1016 3.79,-27.293 17.65,-27.2618 13.85,0.0391 27.76,8.5196 32.7,27.3907 l 19.59,74.7108 24.8,0.059 -32.15,-122.5784 -24.31,-0.0625" /><path
         id="path80"
         style="fill:#231f20;fill-opacity:1;fill-rule:nonzero;stroke:none"
         d="m 3401.93,144.648 c -4.14,5.551 -7.81,8.204 -16.32,8.18 -13.38,-0.027 -27.36,-10.699 -31.8,-27.617 l -19.51,-74.4727 -24.83,-0.0469 32.15,122.5706 24.32,0.058 -3.48,-13.3 c 8.6,8.73 22.83,14.808 36.7,14.839 11.91,0.02 20.08,-3.097 26.39,-11.55 l -23.62,-18.661" /><path
         id="path82"
         style="fill:#231f20;fill-opacity:1;fill-rule:nonzero;stroke:none"
         d="m 3479.96,153.059 c -22.38,-0.059 -30.3,-19.161 -35.37,-38.508 -5.08,-19.3322 -7.17,-38.4299 15.21,-38.3791 22.39,0.0469 30.06,19.1562 35.14,38.5001 5.07,19.348 7.4,38.437 -14.98,38.387 z M 3436.91,0 c -18.71,-0.0390625 -29.49,4.28125 -39.27,16.1094 l 19.92,15.7422 c 5.88,-7.2422 11.75,-10.8399 23.9,-10.8125 20.92,0.0507 32.82,14.8125 37.13,31.2617 l 4.12,15.7109 c -11.79,-10.6601 -22.91,-14.0703 -35.54,-14.1015 -12.4,-0.0313 -21.54,4.0586 -26.58,10.8086 -8.81,11.8203 -6.25,28.9804 -0.8,49.7692 5.44,20.801 11.89,37.953 26.91,49.832 8.59,6.801 20.06,10.692 32.46,10.719 13.14,0.031 22.23,-3.34 28.54,-14.43 l 3.43,13.051 24.08,0.059 -31.95,-121.8479 C 3495.41,21.8906 3469.77,0.078125 3436.91,0" /></g></g></svg>